# xmcd
#
# Track frame offsets: 
#        150
#        13646
#        24121
#        36728
#        49083
#        61574
#        74736
#        90762
#        102083
#        112710
#        125669
#        137698
#        151395
#        163368
#        179410
#        193905
#        203177
#        215141
#        225990
#        238671
#        248981
#        260887
#
# Disc length: 3660 seconds
#
# Revision: 4
# Processed by: cddbd v1.5.2PL0 Copyright (c) Steve Scherf et al.
# Submitted via: ExactAudioCopyFreeDBPlugin 1.0
#
DISCID=3a0e4a16
DTITLE=Various Artist - A Cellarful of Motown
DYEAR=2007
DGENRE=Soul
TTITLE0=Brenda Holloway - You're Walking Out with My Heart
TTITLE1=The Miracles - This Love Will Never Die
TTITLE2=San Remo Golden Strings - Get Ready
TTITLE3=The Marvelettes - Love is Good
TTITLE4=The Contours - Jealousy is Creeping Up on Me
TTITLE5=Dennis Edwards - Easier Said Than Done
TTITLE6=Stevie Wonder - At the Go-Go
TTITLE7=The Spinners - Memories of Her Love Keep Haunting Me
TTITLE8=Shorty Long - I'm in Love Again
TTITLE9=Yvonne Fair - I Can't Let Him Go
TTITLE10=Chris Clark - Come On and See Me
TTITLE11=Blinky and Edwin Starr - Never Give You Up
TTITLE12=The Monitors - Just Too Much to Hope For
TTITLE13=The Fantastic Four - Loving You (Is Hurting Me)
TTITLE14=Marv Johnson - S.O.S. Girl in Distress
TTITLE15=Oma Page - Thief of Love
TTITLE16=Carolyn Crawford - Too Young, Too Long
TTITLE17=Clarence Paul - You Stay on My Mind
TTITLE18=The Temptations - Come Back My Love
TTITLE19=Marvin Gaye - A Chance with You
TTITLE20=Mike Varo - Watch Your Step
TTITLE21=The Marvelettes - The Boy from Crosstown
EXTD=YEAR: 2007 ID3G: 105
EXTT0=
EXTT1=
EXTT2=
EXTT3=
EXTT4=
EXTT5=
EXTT6=
EXTT7=
EXTT8=
EXTT9=
EXTT10=
EXTT11=
EXTT12=
EXTT13=
EXTT14=
EXTT15=
EXTT16=
EXTT17=
EXTT18=
EXTT19=
EXTT20=
EXTT21=
PLAYORDER=
